<svg xmlns="http://www.w3.org/2000/svg" width="30" height="25" viewBox="0 0 30 25" fill="none">
    <path
        d="M20.4985 18.999V20.9377C20.4985 23.0757 18.4608 24.815 15.9559 24.815H4.54261C2.03774 24.815 0 23.0757 0 20.9377V3.87735C0 1.73932 2.03774 0 4.54261 0H15.9559C18.4608 0 20.4985 1.73932 20.4985 3.87735V5.81602C20.4985 6.35143 19.9902 6.78536 19.3629 6.78536C18.7356 6.78536 18.2272 6.35143 18.2272 5.81602V3.87735C18.2272 2.80843 17.2083 1.93867 15.9559 1.93867H4.54261C3.29029 1.93867 2.27131 2.80843 2.27131 3.87735V20.9377C2.27131 22.0066 3.29029 22.8764 4.54261 22.8764H15.9559C17.2083 22.8764 18.2272 22.0066 18.2272 20.9377V18.999C18.2272 18.4636 18.7356 18.0297 19.3629 18.0297C19.9902 18.0297 20.4985 18.4636 20.4985 18.999ZM28.2412 10.7424L25.6982 8.57182C25.2545 8.19317 24.5354 8.19317 24.092 8.57182C23.6484 8.95028 23.6484 9.56406 24.092 9.94252L25.9009 11.4866H12.2651C11.6378 11.4866 11.1294 11.9206 11.1294 12.456C11.1294 12.9914 11.6378 13.4253 12.2651 13.4253H25.9009L24.092 14.9694C23.6484 15.3479 23.6484 15.9617 24.092 16.3401C24.3139 16.5295 24.6044 16.6241 24.895 16.6241C25.1858 16.6241 25.4763 16.5295 25.6982 16.3401L28.2412 14.1696C29.3482 13.2246 29.3482 11.6873 28.2412 10.7424Z"
        fill="white" />
</svg>