<svg xmlns="http://www.w3.org/2000/svg" width="30" height="25" viewBox="0 0 30 25" fill="none">
    <path
        d="M15.4486 24.815H13.624C12.1483 24.815 10.9476 23.7902 10.9476 22.5306V22.0038C10.3203 21.8327 9.71069 21.6167 9.12509 21.358L8.68764 21.7314C7.62813 22.6369 5.93095 22.6103 4.90222 21.7311L3.61263 20.6304C2.58208 19.7517 2.55244 18.3036 3.61297 17.3994L4.05008 17.0263C3.74703 16.5264 3.49406 16.0062 3.29357 15.4706H2.67634C1.20067 15.4706 0 14.4458 0 13.1862V11.6288C0 10.3692 1.20067 9.34441 2.67639 9.34441H3.29362C3.49412 8.80885 3.74709 8.28861 4.05014 7.78877L3.61268 7.41543C2.55278 6.51172 2.58202 5.06343 3.61302 4.18439L4.90273 3.08361C5.93385 2.20229 7.63063 2.18028 8.68809 3.0839L9.12515 3.45695C9.71074 3.19833 10.3203 2.98236 10.9477 2.81122V2.28439C10.9477 1.02478 12.1483 0 13.6241 0H15.4487C16.9244 0 18.125 1.02478 18.125 2.28439V2.81127C18.7524 2.98236 19.362 3.19833 19.9476 3.457L20.385 3.08361C21.4445 2.17815 23.1417 2.20471 24.1705 3.08395L25.46 4.18463C26.4906 5.06328 26.5202 6.51143 25.4597 7.41567L25.0226 7.78877C25.3256 8.28861 25.5786 8.8088 25.7791 9.34441H26.3963C27.8721 9.34441 29.0727 10.3692 29.0727 11.6288V13.1862C29.0727 14.4458 27.8721 15.4706 26.3963 15.4706H25.7791C25.5786 16.0062 25.3256 16.5264 25.0226 17.0263L25.46 17.3997C26.5199 18.3034 26.4907 19.7516 25.4597 20.6307L24.17 21.7315C23.1389 22.6128 21.4421 22.6348 20.3846 21.7312L19.9476 21.3581C19.362 21.6168 18.7524 21.8327 18.125 22.0039V22.5307C18.125 23.7902 16.9244 24.815 15.4486 24.815ZM9.40985 19.8312C10.2234 20.2418 11.099 20.5521 12.0123 20.7533C12.3884 20.8361 12.6512 21.1256 12.6512 21.4572V22.5306C12.6512 22.9885 13.0877 23.361 13.6241 23.361H15.4487C15.9851 23.361 16.4216 22.9885 16.4216 22.5306V21.4572C16.4216 21.1256 16.6844 20.8361 17.0605 20.7533C17.9738 20.5521 18.8494 20.2418 19.6629 19.8312C19.9977 19.6622 20.4238 19.7082 20.6988 19.9429L21.5896 20.7033C21.9737 21.0315 22.5905 21.0239 22.9651 20.7036L24.2556 19.6022C24.6294 19.2836 24.6419 18.757 24.256 18.4281L23.3648 17.6674C23.0898 17.4327 23.036 17.0689 23.2339 16.7832C23.715 16.0889 24.0784 15.3416 24.3141 14.562C24.4112 14.2409 24.7504 14.0167 25.1388 14.0167H26.3964C26.9328 14.0167 27.3693 13.6441 27.3693 13.1863V11.6288C27.3693 11.171 26.9328 10.7985 26.3964 10.7985H25.1388C24.7504 10.7985 24.4112 10.5742 24.3141 10.2532C24.0784 9.47357 23.7149 8.72622 23.2339 8.03188C23.036 7.74622 23.0898 7.38242 23.3648 7.14775L24.2556 6.38735C24.6407 6.05904 24.6307 5.53269 24.256 5.21324L22.9656 4.11183C22.5916 3.79214 21.9747 3.78279 21.59 4.11154L20.6989 4.87223C20.4239 5.10695 19.9976 5.1529 19.663 4.98394C18.8495 4.57328 17.9739 4.26305 17.0606 4.06186C16.6845 3.97903 16.4217 3.68949 16.4217 3.35793V2.28439C16.4217 1.82652 15.9852 1.45401 15.4487 1.45401H13.6242C13.0877 1.45401 12.6512 1.82652 12.6512 2.28439V3.35783C12.6512 3.68939 12.3884 3.97894 12.0123 4.06177C11.099 4.26295 10.2234 4.57319 9.40991 4.98385C9.07512 5.15275 8.64897 5.10681 8.37402 4.87213L7.48322 4.11173C7.09914 3.78352 6.48231 3.79113 6.10771 4.1114L4.81721 5.21285C4.44347 5.53147 4.43098 6.05797 4.81687 6.38696L5.70808 7.14765C5.98302 7.38233 6.03685 7.74612 5.83896 8.03178C5.35784 8.72612 4.99443 9.47348 4.75873 10.2531C4.66163 10.5741 4.32241 10.7984 3.93402 10.7984H2.67639C2.13997 10.7984 1.70348 11.1709 1.70348 11.6288V13.1862C1.70348 13.6441 2.13997 14.0166 2.67639 14.0166H3.93396C4.32241 14.0166 4.66157 14.2409 4.75867 14.5619C4.99438 15.3415 5.35784 16.0889 5.83891 16.7832C6.03679 17.0689 5.98296 17.4327 5.70802 17.6673L4.81716 18.4277C4.43206 18.756 4.44211 19.2824 4.81682 19.6018L6.1072 20.7032C6.48123 21.0229 7.09812 21.0323 7.48276 20.7035L8.37391 19.9429C8.57651 19.77 8.99801 19.6233 9.40985 19.8312Z"
        fill="white" fill-opacity="0.7" />
    <path
        d="M14.5361 17.8067C11.0481 17.8067 8.21051 15.3847 8.21051 12.4075C8.21051 9.43041 11.0481 7.00833 14.5361 7.00833C18.0241 7.00833 20.8617 9.43041 20.8617 12.4075C20.8617 15.3847 18.0241 17.8067 14.5361 17.8067ZM14.5361 8.46234C11.9874 8.46234 9.91399 10.2322 9.91399 12.4075C9.91399 14.5829 11.9875 16.3527 14.5361 16.3527C17.0847 16.3527 19.1582 14.5829 19.1582 12.4075C19.1582 10.2322 17.0848 8.46234 14.5361 8.46234Z"
        fill="white" fill-opacity="0.7" />
</svg>