<svg xmlns="http://www.w3.org/2000/svg" width="30" height="33" viewBox="0 0 30 33" fill="none">
    <g clip-path="url(#clip0_47_475)">
      <path d="M20.1942 17.6004C21.8538 18.8465 23.0167 20.5347 23.0167 22.7857V26.8054H27.8621V22.7857C27.8621 19.8648 23.5376 18.1364 20.1942 17.6004Z" fill="white" fill-opacity="0.7"/>
      <path d="M18.1725 16.0878C20.8496 16.0878 23.0179 13.6894 23.0179 10.7283C23.0179 7.76716 20.8496 5.36877 18.1725 5.36877C17.6031 5.36877 17.0701 5.50276 16.5613 5.69035C17.5668 7.07042 18.1725 8.82566 18.1725 10.7283C18.1725 12.6309 17.5668 14.3862 16.5613 15.7662C17.0701 15.9538 17.6031 16.0878 18.1725 16.0878Z" fill="white" fill-opacity="0.7"/>
      <path d="M10.9044 16.0878C13.5815 16.0878 15.7498 13.6894 15.7498 10.7283C15.7498 7.76716 13.5815 5.36877 10.9044 5.36877C8.22724 5.36877 6.0589 7.76716 6.0589 10.7283C6.0589 13.6894 8.22724 16.0878 10.9044 16.0878ZM10.9044 8.04853C12.2369 8.04853 13.3271 9.25442 13.3271 10.7283C13.3271 12.2022 12.2369 13.4081 10.9044 13.4081C9.57185 13.4081 8.48163 12.2022 8.48163 10.7283C8.48163 9.25442 9.57185 8.04853 10.9044 8.04853Z" fill="white" fill-opacity="0.7"/>
      <path d="M10.9044 17.4277C7.67001 17.4277 1.21344 19.2231 1.21344 22.7872V26.8068H20.5953V22.7872C20.5953 19.2231 14.1387 17.4277 10.9044 17.4277ZM18.1725 24.1271H3.63617V22.8006C3.87844 21.8359 7.63367 20.1074 10.9044 20.1074C14.175 20.1074 17.9303 21.8359 18.1725 22.7872V24.1271Z" fill="white" fill-opacity="0.7"/>
    </g>
    <defs>
      <clipPath id="clip0_47_475">
        <rect width="29.0727" height="32.1571" fill="white"/>
      </clipPath>
    </defs>
  </svg>